<?xml version="1.0" standalone="no"?>
<!DOCTYPE svg PUBLIC "-//W3C//DTD SVG 20010904//EN"
 "http://www.w3.org/TR/2001/REC-SVG-20010904/DTD/svg10.dtd">
<svg version="1.0" xmlns="http://www.w3.org/2000/svg"
 width="593.000000pt" height="593.000000pt" viewBox="0 0 593.000000 593.000000"
 preserveAspectRatio="xMidYMid meet">
<metadata>
Created by potrace 1.11, written by Peter Selinger 2001-2013
</metadata>
<g transform="translate(0.000000,593.000000) scale(0.100000,-0.100000)"
fill="#000000" stroke="none">
<path d="M2960 5920 c-30 -4 -77 -11 -105 -15 -111 -15 -339 -82 -457 -133
l-47 -21 36 -106 c22 -65 40 -104 47 -102 147 62 340 121 457 141 55 9 207 20
289 19 83 0 238 -11 249 -18 3 -1 29 -6 56 -9 28 -4 57 -9 65 -11 8 -2 26 -6
40 -9 44 -8 204 -57 235 -71 17 -7 53 -22 80 -33 28 -11 89 -40 135 -64 477
-250 839 -676 1025 -1208 13 -36 27 -77 33 -91 l10 -26 94 32 c104 37 100 29
66 130 -137 406 -383 780 -694 1056 -157 140 -377 281 -564 363 -47 21 -94 41
-105 46 -81 37 -317 100 -430 115 -23 3 -52 8 -65 11 -40 9 -390 12 -450 4z"/>
<path d="M3055 5342 c-206 -17 -506 -97 -522 -138 -3 -7 10 -54 27 -103 l32
-90 37 18 c58 29 205 73 321 97 19 3 107 8 195 9 122 2 182 -1 255 -15 185
-36 358 -106 514 -208 93 -61 113 -79 226 -192 135 -134 173 -183 257 -331 73
-128 105 -199 168 -386 3 -8 31 -3 97 19 51 17 94 32 96 33 1 1 -13 47 -32
101 -172 493 -545 889 -1013 1077 -71 29 -221 73 -273 81 -19 3 -46 8 -60 11
-57 13 -257 23 -325 17z"/>
<path d="M2985 4803 c-93 -17 -140 -28 -205 -50 -41 -14 -80 -29 -86 -34 -7
-6 -1 -37 19 -100 24 -71 34 -89 46 -85 9 2 48 16 86 30 95 34 187 45 330 41
256 -7 459 -103 630 -297 77 -87 164 -226 205 -326 18 -42 39 -93 49 -114 l16
-36 95 32 c109 38 106 27 54 156 -30 75 -126 257 -143 270 -3 3 -25 31 -49 62
-62 81 -186 197 -277 258 -196 132 -406 198 -633 197 -64 0 -126 -1 -137 -4z"/>
<path d="M649 4502 c0 -4 -2 -16 -4 -27 -26 -131 -26 -562 -1 -705 3 -14 7
-43 10 -65 24 -167 82 -393 141 -545 210 -541 544 -970 1010 -1296 55 -39 107
-73 115 -77 8 -4 33 -18 55 -32 81 -50 276 -146 388 -190 250 -99 502 -158
782 -184 89 -9 422 -7 500 3 81 10 135 17 158 22 12 2 36 6 52 9 459 78 921
294 1283 598 46 39 79 73 75 78 -10 9 -62 37 -218 119 -66 34 -151 79 -190
100 -38 20 -115 61 -170 90 -55 29 -136 72 -180 95 -44 23 -125 66 -180 95
-55 29 -131 69 -170 90 -77 41 -196 104 -380 200 -66 34 -138 73 -160 85 -22
12 -101 54 -175 93 -146 76 -304 161 -333 178 -17 10 -15 17 26 95 63 123 74
136 111 143 76 14 156 88 189 174 54 139 -26 303 -160 328 -185 35 -350 -169
-289 -356 l17 -51 -58 -109 -57 -109 -136 71 c-207 109 -299 157 -375 198 -38
21 -115 61 -170 90 -55 29 -131 69 -170 90 -38 21 -158 84 -265 140 -107 56
-226 119 -265 140 -38 21 -128 68 -200 105 -71 37 -152 80 -180 95 -27 15
-108 58 -180 95 -71 38 -156 83 -187 101 -32 18 -58 30 -59 26z m474 -597
c156 -88 157 -89 158 -124 5 -183 27 -382 54 -511 8 -36 17 -77 19 -92 3 -15
7 -31 10 -36 3 -5 8 -22 10 -39 18 -97 107 -346 218 -603 l88 -205 -93 96
c-50 53 -102 108 -114 122 -54 64 -183 238 -183 247 0 5 -3 10 -8 10 -4 0 -12
9 -17 19 -6 11 -31 55 -56 98 -69 115 -91 158 -136 263 -38 87 -99 258 -108
298 -2 9 -11 49 -20 87 -9 39 -18 79 -20 90 -27 154 -35 220 -40 342 l-3 74
42 -24 c22 -13 112 -64 199 -112z"/>
<path d="M1570 1678 c0 -17 -88 -294 -201 -633 -99 -297 -213 -595 -285 -750
-21 -44 -38 -82 -39 -85 0 -3 -22 -49 -48 -103 -26 -53 -47 -99 -47 -102 0 -6
2309 0 2315 7 3 3 -23 63 -59 134 -35 71 -71 147 -81 169 -104 230 -209 490
-276 685 -23 69 -47 128 -52 132 -6 3 -30 9 -55 13 -66 10 -263 62 -366 96
-256 86 -517 228 -717 389 -76 61 -89 68 -89 48z m171 -363 l77 -54 -30 -93
c-105 -326 -219 -567 -380 -803 -67 -99 -182 -235 -191 -225 -2 3 37 109 88
235 120 299 181 469 266 745 83 270 77 250 86 250 4 0 42 -25 84 -55z"/>
</g>
</svg>
